<svg width="71" height="80" viewBox="0 0 71 80" fill="none" xmlns="http://www.w3.org/2000/svg">
<path fill-rule="evenodd" clip-rule="evenodd" d="M5.54552 70.8571C5.54552 70.857 5.5455 70.857 5.54547 70.857V70.857C5.54543 70.8569 5.54541 70.8569 5.54541 70.8569V9.14314C5.54541 9.1431 5.54543 9.14305 5.54547 9.14302V9.14302C5.5455 9.14299 5.54552 9.14295 5.54552 9.14291V6.20694C5.54552 2.77894 8.32446 0 11.7525 0H31C31.0001 0 31.0001 0 31.0001 0C53.0914 1.34005e-05 71 17.9086 71 40C71 62.0914 53.0914 80 31 80H11.7525C8.32446 80 5.54552 77.2211 5.54552 73.7931V70.8571Z" fill="#69C3A3"/>
<circle cx="31" cy="40" r="31" fill="#674FFF"/>
<circle cx="31" cy="40" r="10" fill="#69C3A3"/>
</svg>
